<svg id="Capa_1" enable-background="new 0 0 512 512" height="512" viewBox="0 0 512 512" width="512" xmlns="http://www.w3.org/2000/svg"><g><g><g><path d="m465.311 98.553 6.019 31.559c.462 2.424 2.382 4.306 4.815 4.72l23.404 3.983c3.218.548 5.383 3.601 4.835 6.819l-3.543 20.811c-.548 3.218-3.601 5.383-6.819 4.835l-45.943-7.821c-2.433-.414-4.352-2.296-4.814-4.72l-6.109-32.032c-.454-2.382-2.317-4.245-4.699-4.699l-32.032-6.11c-2.424-.462-4.305-2.382-4.72-4.814l-7.824-45.947c-.548-3.218 1.617-6.271 4.835-6.819l20.811-3.543c3.218-.548 6.271 1.617 6.819 4.835l3.987 23.41c.414 2.432 2.296 4.352 4.72 4.814l31.56 6.02c2.381.454 4.243 2.317 4.698 4.699z" fill="#aad880"/></g></g><g><path d="m499.548 138.815-23.404-3.983c-2.433-.414-4.352-2.296-4.815-4.72l-6.019-31.559c-.454-2.382-2.317-4.245-4.699-4.699l-31.56-6.02c-2.424-.462-4.305-2.381-4.72-4.814l-3.987-23.41c-.548-3.218-3.601-5.383-6.819-4.835l-20.811 3.543c-3.218.548-5.383 3.601-4.835 6.819l.725 4.26 11.209-1.908c3.218-.548 6.271 1.616 6.819 4.835l3.987 23.41c.414 2.432 2.296 4.351 4.72 4.814l31.56 6.02c2.382.454 4.244 2.317 4.699 4.699l6.019 31.559c.462 2.424 2.382 4.306 4.814 4.72l23.404 3.983c3.218.548 5.383 3.601 4.835 6.819l-2.045 12.014 5.395.918c3.218.548 6.271-1.617 6.819-4.835l3.543-20.811c.549-3.218-1.615-6.271-4.834-6.819z" fill="#80cb8e"/></g><g><path d="m72.832 201.015c-2.669 2.143-4.83 4.64-6.495 7.355-1.126 1.836-3.487 2.506-5.399 1.514-10.713-5.555-24.215-3.842-33.202 5.145s-10.7 22.49-5.145 33.202c.991 1.912.322 4.273-1.514 5.399-2.715 1.665-5.212 3.826-7.355 6.495-8.564 10.663-8.2 26.228.831 36.499.574.652 1.17 1.272 1.785 1.859 13.661 13.017 36.114 4.985 39.405-13.595 1.274-7.194 5.12-16.678 15.146-26.704s19.51-13.872 26.704-15.146c18.58-3.291 26.612-25.745 13.595-39.405-.587-.616-1.206-1.212-1.859-1.785-10.269-9.033-25.834-9.396-36.497-.833z" fill="#ffe07d"/></g><g><path d="m111.189 203.632c-.587-.616-1.206-1.211-1.859-1.785-5.74-5.048-13.134-7.382-20.401-6.969.403.378.816.75 1.192 1.145 13.017 13.661 4.985 36.114-13.595 39.405-7.194 1.274-16.678 5.12-26.704 15.146-10.027 10.026-13.872 19.51-15.146 26.704-1.923 10.856-10.39 18.101-19.82 19.66.483.533.972 1.057 1.483 1.544 13.661 13.017 36.114 4.985 39.405-13.595 1.274-7.194 5.12-16.678 15.146-26.704s19.51-13.872 26.704-15.146c18.58-3.291 26.612-25.745 13.595-39.405z" fill="#ffd064"/></g><g><g><path d="m368.457 148.2-90.681-43.956v109.165h37.497c30.91 0 55.967 25.057 55.967 55.967v2.814c0 11.433-3.501 22.591-10.033 31.975-10.463 15.032-27.62 23.993-45.934 23.993l7.1 66.001c58.349 0 105.651-47.301 105.651-105.651v-45.238c0-40.485-23.136-77.41-59.567-95.07z" fill="#f1f4f6"/></g><g><g><path d="m392.531 164.287c9.905 16.253 15.444 35.183 15.444 54.971v45.238c0 52.452-38.226 95.968-88.338 104.231l2.736 25.433c58.349 0 105.651-47.301 105.651-105.651v-45.238c0-30.639-13.258-59.231-35.493-78.984z" fill="#dfeaef"/></g></g><g><path d="m194.931 267.177v-262.177c0-2.761 2.239-5 5-5h71.145c2.761 0 5 2.239 5 5v278.045z" fill="#407093"/></g><g><path d="m255.264 0v238.622c0 13.04-10.571 23.611-23.611 23.611h-36.721v4.944l81.145 15.868v-278.045c0-2.761-2.239-5-5-5z" fill="#365e7d"/></g><g><path d="m184.856 228.547v-163.078c0-3.866 3.134-7 7-7h87.294c3.866 0 7 3.134 7 7v163.078c0 3.866-3.134 7-7 7h-87.294c-3.866 0-7-3.134-7-7z" fill="#f1f4f6"/></g><g><path d="m279.151 58.469h-16.304v112.226c0 22.946-18.601 41.547-41.547 41.547h-36.442v16.304c0 3.866 3.134 7 7 7h87.294c3.866 0 7-3.134 7-7v-163.077c-.002-3.866-3.135-7-7.001-7z" fill="#dfeaef"/></g><g><path d="m339.412 434.42h-76.395c-4.142 0-7.5-3.358-7.5-7.5s3.358-7.5 7.5-7.5h76.395c4.142 0 7.5 3.358 7.5 7.5s-3.358 7.5-7.5 7.5z" fill="#365e7d"/></g><g><path d="m318.924 385.951h-173.46c-4.142 0-7.5-3.358-7.5-7.5s3.358-7.5 7.5-7.5h173.46c4.142 0 7.5 3.358 7.5 7.5s-3.358 7.5-7.5 7.5z" fill="#365e7d"/></g><g><path d="m428.024 484.344-63.036-151.889c-7.31-17.613-24.552-29.051-43.622-28.936l-3.631.022c-4.949.03-8.946 4.05-8.946 9v171.804h119.235z" fill="#f1f4f6"/></g><g><path d="m364.988 332.455c-7.31-17.613-24.552-29.051-43.622-28.937l-3.631.022c-2.315.014-4.415.909-6.002 2.356 12.71 4.207 23.286 13.746 28.603 26.559l63.036 151.889h24.652z" fill="#dfeaef"/></g><g><path d="m258.954 441.685h-46.901c-8.155 0-14.765-6.611-14.765-14.765 0-8.155 6.611-14.765 14.765-14.765h46.901c8.155 0 14.765 6.611 14.765 14.765 0 8.154-6.61 14.765-14.765 14.765z" fill="#ddeafb"/></g><g><path d="m258.954 412.154h-.058c-1.559 6.484-7.38 11.308-14.342 11.308h-46.842c-.267 1.111-.424 2.265-.424 3.458 0 8.155 6.611 14.766 14.765 14.766h46.901c8.155 0 14.766-6.611 14.766-14.766s-6.611-14.766-14.766-14.766z" fill="#bed8fb"/></g><g><path d="m220.992 327.161-11.915-2.431c-5.411-1.104-8.903-6.386-7.799-11.797l8.122-39.804 31.511 6.43-8.122 39.804c-1.104 5.41-6.385 8.902-11.797 7.798z" fill="#f1f4f6"/></g><g><path d="m231.202 277.576-7.13 34.942c-.552 2.706-3.193 4.451-5.899 3.899l-16.814-3.431c-.029-.006-.057-.016-.086-.022-1.084 5.4 2.403 10.663 7.804 11.765l11.915 2.431c5.411 1.104 10.693-2.387 11.797-7.799l8.122-39.804z" fill="#dfeaef"/></g><g><path d="m271.097 328.434-11.905 2.48c-5.407 1.126-10.703-2.344-11.829-7.751l-8.284-39.771 21.561-4.491c5.481-1.142 10.849 2.376 11.991 7.857l6.217 29.847c1.126 5.407-2.344 10.703-7.751 11.829z" fill="#f1f4f6"/></g><g><path d="m278.848 316.605-6.217-29.847c-1.116-5.359-6.274-8.829-11.626-7.914 0 .002.001.004.002.006l7.237 34.742c.563 2.703-1.172 5.351-3.875 5.914l-16.8 3.499c-.077.016-.153.022-.229.036l.025.121c1.127 5.407 6.424 8.877 11.831 7.75l11.903-2.479c5.405-1.125 8.875-6.421 7.749-11.828z" fill="#dfeaef"/></g><g><path d="m162.479 306.27 9.982 6.946c4.533 3.154 10.765 2.037 13.92-2.497l23.204-33.346-18.078-12.579c-4.595-3.198-10.913-2.065-14.11 2.531l-17.414 25.026c-3.155 4.533-2.037 10.765 2.496 13.919z" fill="#f1f4f6"/></g><g><path d="m201.792 271.951-20.226 29.067c-1.577 2.267-4.693 2.826-6.96 1.248l-14.086-9.802c-.14-.098-.267-.207-.401-.31l-.136.196c-3.153 4.535-2.035 10.767 2.499 13.922l9.979 6.944c4.533 3.155 10.766 2.037 13.92-2.497l23.204-33.346z" fill="#dfeaef"/></g><g><path d="m287.144 295.005c-.497 0-1.001-.05-1.507-.153l-120.715-24.632c-4.059-.828-6.677-4.789-5.849-8.848.828-4.058 4.786-6.677 8.848-5.849l120.715 24.632c4.059.828 6.677 4.789 5.849 8.848-.725 3.552-3.851 6.002-7.341 6.002z" fill="#365e7d"/></g><g><path d="m436.14 512h-324.841c-4.418 0-8-3.582-8-8v-26.113c0-4.418 3.582-8 8-8h324.841c4.418 0 8 3.582 8 8v26.113c0 4.418-3.582 8-8 8z" fill="#f1f4f6"/></g><g><path d="m436.14 469.887h-11.705v14.408c0 4.418-3.582 8-8 8h-313.136v11.705c0 4.418 3.582 8 8 8h324.841c4.418 0 8-3.582 8-8v-26.113c0-4.418-3.582-8-8-8z" fill="#dfeaef"/></g></g><g><path d="m71.229 43.132c15.495 4.449 27.704 16.658 32.153 32.152.386 1.343 2.263 1.343 2.649 0 4.449-15.495 16.658-27.704 32.153-32.152 1.343-.386 1.343-2.263 0-2.649-15.495-4.449-27.704-16.658-32.153-32.152-.386-1.343-2.263-1.343-2.649 0-4.449 15.495-16.658 27.704-32.153 32.152-1.343.386-1.343 2.264 0 2.649z" fill="#9dc6fb"/></g><g><path d="m138.183 40.483c-15.495-4.449-27.704-16.658-32.152-32.152-.386-1.343-2.263-1.343-2.649 0-1.881 6.551-5.162 12.505-9.479 17.543 5.894 6.878 13.73 12.042 22.674 14.61 1.343.386 1.343 2.263 0 2.649-8.944 2.568-16.78 7.732-22.674 14.61 4.317 5.038 7.598 10.991 9.479 17.543.386 1.343 2.263 1.343 2.649 0 4.449-15.495 16.658-27.704 32.152-32.152 1.343-.387 1.343-2.265 0-2.651z" fill="#80b4fb"/></g><g><path d="m470.435 369.973c-8.868 8.843-18.761 16.031-29.293 21.571-2.172 1.143-1.797 4.369.589 4.944 21.442 5.169 46.822 6.513 57.253 6.857 2.652.087 4.822-2.077 4.742-4.729-.315-10.433-1.587-35.816-6.695-57.272-.568-2.388-3.794-2.772-4.943-.603-5.57 10.517-12.785 20.389-21.653 29.232z" fill="#cbafea"/></g><g><path d="m497.031 341.345c-.569-2.388-3.794-2.772-4.943-.603-2.577 4.865-5.522 9.585-8.804 14.136 3.588 18.079 4.79 37.53 5.19 47.967 4.258.262 7.866.414 10.51.501 2.652.087 4.822-2.077 4.742-4.729-.314-10.432-1.586-35.816-6.695-57.272z" fill="#bc95e2"/></g></g></svg>